HIERARCHY
ROOT root
{
	OFFSET	0	13.1	24.9
	CHANNELS 6  Xposition Yposition Zposition Xrotation Yrotation Zrotation
	JOINT spine_1
	{
		OFFSET	0	9.99999	0
		CHANNELS 3  Xrotation Yrotation Zrotation
		JOINT spine_2
		{
			OFFSET	0	112	-10
			CHANNELS 3  Xrotation Yrotation Zrotation
			JOINT spine_3
			{
				OFFSET	0	206.5	19.3
				CHANNELS 3  Xrotation Yrotation Zrotation
				JOINT spine_4
				{
					OFFSET	0	110.4	14.6
					CHANNELS 3  Xrotation Yrotation Zrotation
					JOINT neck_1
					{
						OFFSET	0	71.8	-50.3
						CHANNELS 3  Xrotation Yrotation Zrotation
						JOINT neck_2
						{
							OFFSET	0	86.2	-25.8
							CHANNELS 3  Xrotation Yrotation Zrotation
							JOINT head_ee
							{
								OFFSET	0	179.8	-8.7
								CHANNELS 3  Xrotation Yrotation Zrotation
								End Site
								{
									OFFSET	1	0	0
								}
							}
						}
					}
					JOINT left_clavicle
					{
						OFFSET	-43.2	22.4	-70.8
						CHANNELS 3  Xrotation Yrotation Zrotation
						JOINT left_shoulder
						{
							OFFSET	-93.9	-5.79999	48.7
							CHANNELS 3  Xrotation Yrotation Zrotation
							JOINT left_elbow
							{
								OFFSET	-291.4	-30.8	15.2
								CHANNELS 3  Xrotation Yrotation Zrotation
								JOINT left_lowarm_twist
								{
									OFFSET	-110.7	-3.89999	13.6
									CHANNELS 3  Xrotation Yrotation Zrotation
									JOINT left_hand
									{
										OFFSET	-110.7	-3.89999	13.6
										CHANNELS 3  Xrotation Yrotation Zrotation
										JOINT left_ee
										{
											OFFSET	-80.8	-5.10001	12.1
											CHANNELS 3  Xrotation Yrotation Zrotation
											End Site
											{
												OFFSET	1	0	0
											}
										}
									}
								}
							}
						}
					}
					JOINT right_clavicle
					{
						OFFSET	43.2	22.4	-70.8
						CHANNELS 3  Xrotation Yrotation Zrotation
						JOINT right_shoulder
						{
							OFFSET	93.9	-5.79999	48.7
							CHANNELS 3  Xrotation Yrotation Zrotation
							JOINT right_elbow
							{
								OFFSET	291.4	-30.8	15.2
								CHANNELS 3  Xrotation Yrotation Zrotation
								JOINT right_lowarm_twist
								{
									OFFSET	110.7	-3.89999	13.6
									CHANNELS 3  Xrotation Yrotation Zrotation
									JOINT right_hand
									{
										OFFSET	110.7	-3.89999	13.6
										CHANNELS 3  Xrotation Yrotation Zrotation
										JOINT right_ee
										{
											OFFSET	80.8	-5.10001	12.1
											CHANNELS 3  Xrotation Yrotation Zrotation
											End Site
											{
												OFFSET	1	0	0
											}
										}
									}
								}
							}
						}
					}
				}
			}
		}
	}
	JOINT left_hip
	{
		OFFSET	-82.8	-127.5	0.300001
		CHANNELS 3  Xrotation Yrotation Zrotation
		JOINT left_knee
		{
			OFFSET	-28.2	-396.7	2.2
			CHANNELS 3  Xrotation Yrotation Zrotation
			JOINT left_ankle
			{
				OFFSET	-11.7	-411.3	35.4
				CHANNELS 3  Xrotation Yrotation Zrotation
				JOINT left_toes
				{
					OFFSET	0	-60	-88.6
					CHANNELS 3  Xrotation Yrotation Zrotation
					JOINT left_foot_ee
					{
						OFFSET	-22.5	-16.5	-42.2
						CHANNELS 3  Xrotation Yrotation Zrotation
						End Site
						{
							OFFSET	1	0	0
						}
					}
				}
			}
		}
	}
	JOINT right_hip
	{
		OFFSET	82.8	-127.5	0.300001
		CHANNELS 3  Xrotation Yrotation Zrotation
		JOINT right_knee
		{
			OFFSET	28.2	-396.7	2.2
			CHANNELS 3  Xrotation Yrotation Zrotation
			JOINT right_ankle
			{
				OFFSET	11.7	-411.3	35.4
				CHANNELS 3  Xrotation Yrotation Zrotation
				JOINT right_toes
				{
					OFFSET	0	-60	-88.6
					CHANNELS 3  Xrotation Yrotation Zrotation
					JOINT right_foot_ee
					{
						OFFSET	22.5	-16.5	-42.2
						CHANNELS 3  Xrotation Yrotation Zrotation
						End Site
						{
							OFFSET	1	0	0
						}
					}
				}
			}
		}
	}
}
MOTION
Frames: 6
Frame Time: 0.02
2969.51915729 699.59 -1655.39551643 12.5124367759 48.819993148 -12.6100716284 -4.27581 0.42644 3.1903 -4.27018 0.222675 3.21094 -4.24852 -0.692514 3.14334 -4.26225 -0.18766 3.21318 12.5352 21.3188 -4.51168 16.2178 38.3554 -7.33352 -0.0 0.0 -0.0 3.32259 7.05588 6.78851 1.74265 -0.811523 49.3723 2.5188 -51.2814 1.20916 -44.8526 -3.48139 4.38699 -0.263788 17.603 5.54435 -0.0 0.0 -0.0 14.9207 26.2683 -30.1394 -39.2251 45.4012 -38.6604 0.62029 17.0809 -0.0931517 4.10694 -0.126489 0.509223 3.25913 -30.4207 -30.7172 0.0 0.0 0.0 -13.5649 25.648 6.82254 2.33182 -0.103024 -0.342952 8.14482 6.65066 -1.16526 -14.8735 0.0 0.0 -0.0 0.0 -0.0 13.2969 31.0273 -5.14916 -45.24 0.833325 -6.7157 -17.7751 1.57345 -2.71328 -0.597566 0.0 0.0 0.0 0.0 0.0 
2955.72741218 707.273 -1635.77890518 12.5765105609 53.6604958389 -13.0007584872 -4.09344 0.333339 3.19932 -4.08776 0.12919 3.21402 -4.07187 -0.773571 3.12231 -4.08537 -0.271019 3.20519 12.387 21.3019 -4.69996 16.1094 38.5439 -7.56035 -0.0 0.0 -0.0 3.25324 7.00125 6.66112 2.40664 0.0613162 49.1547 2.92878 -55.4122 1.53829 -45.2291 -3.52365 4.41042 -0.337573 17.3589 4.99655 -0.0 0.0 -0.0 15.0323 25.9962 -30.4402 -39.703 44.0821 -38.8878 0.626221 17.2346 -0.0949014 3.94271 -0.122134 0.488695 3.21853 -30.499 -30.4675 0.0 0.0 0.0 -16.3291 25.2896 8.7949 1.15384 -0.0492309 -0.170214 8.61909 4.38506 -1.23328 -14.7187 0.0 0.0 -0.0 0.0 -0.0 15.9212 30.5631 -6.71604 -39.1656 0.414536 -5.88112 -16.8806 2.25965 -2.5812 -2.01824 0.0 0.0 0.0 0.0 0.0 
2941.31851002 701.945 -1608.20565404 13.9450855316 57.477764303 -14.9518666462 -4.06493 0.401754 3.29836 -4.0589 0.191175 3.31721 -4.03848 -0.740942 3.23913 -4.05305 -0.220378 3.3154 11.7736 21.3662 -4.61163 15.4301 38.7666 -7.29879 -0.0 0.0 -0.0 2.96237 7.18433 6.14815 3.27538 1.48057 48.8087 3.62169 -60.8496 2.12741 -45.7395 -3.58119 4.44174 -0.430829 17.0194 4.28946 -0.0 0.0 -0.0 14.8637 25.7708 -30.0686 -40.2922 42.2588 -39.1834 0.634788 17.4561 -0.0974554 3.70951 -0.115849 0.45957 3.16235 -30.5338 -30.1145 0.0 0.0 0.0 -16.2634 25.1434 9.44719 0.910003 -0.0385407 -0.134324 9.27409 1.15107 -1.3308 -14.568 0.0 0.0 -0.0 0.0 -0.0 17.1189 30.2629 -7.56484 -31.8462 0.0310665 -4.82479 -15.859 3.16463 -2.43105 -4.10531 0.0 0.0 0.0 0.0 0.0 
2942.39758075 701.945 -1604.18385525 14.32737172 58.4279614737 -15.4028661128 -4.06493 0.401754 3.29836 -4.0589 0.191175 3.31721 -4.03848 -0.740942 3.23913 -4.05305 -0.220378 3.3154 11.7736 21.3662 -4.61163 15.4301 38.7666 -7.29879 -0.0 0.0 -0.0 2.96237 7.18433 6.14815 3.27538 1.48057 48.8087 3.62169 -60.8496 2.12741 -45.7395 -3.58119 4.44174 -0.430829 17.0194 4.28946 -0.0 0.0 -0.0 14.8637 25.7708 -30.0686 -40.2922 42.2588 -39.1834 0.634788 17.4561 -0.0974554 3.70951 -0.115849 0.45957 3.16235 -30.5338 -30.1145 0.0 0.0 0.0 -16.2634 25.1434 9.44719 0.910003 -0.0385407 -0.134324 9.27409 1.15107 -1.3308 -14.568 0.0 0.0 -0.0 0.0 -0.0 17.1189 30.2629 -7.56484 -31.8462 0.0310665 -4.82479 -15.859 3.16463 -2.43105 -4.10531 0.0 0.0 0.0 0.0 0.0 
2925.48283525 700.931 -1594.22858681 11.2064098965 57.9361968871 -11.4643972784 -3.78425 0.561498 2.98364 -3.77937 0.370592 3.01328 -3.75199 -0.468552 2.99962 -3.76454 0.0108354 3.03594 11.9813 22.4724 -3.8366 15.8159 39.8089 -6.50106 -0.0 0.0 -0.0 2.4702 6.94304 5.25065 6.15334 1.89104 47.2313 4.54988 -66.0523 2.95858 -45.9162 -3.60117 4.45246 -0.560834 17.0015 3.48787 -0.0 0.0 -0.0 14.6681 25.2013 -29.6752 -41.4627 41.2138 -38.9447 0.675719 18.5071 -0.110092 3.01712 -0.0964904 0.373244 3.14301 -30.5245 -29.9907 0.0 0.0 0.0 -14.627 24.9827 8.58325 1.26127 -0.0539887 -0.186012 10.5516 -0.786738 -1.51408 -14.5021 0.0 0.0 -0.0 0.0 -0.0 17.7656 30.0007 -8.1818 -23.1884 -0.244167 -3.52584 -15.2115 4.46176 -2.34239 -4.29137 0.0 0.0 0.0 0.0 0.0 
2909.47446571 699.515 -1590.13403825 10.4806167729 58.7508411868 -10.8891846761 -3.88783 0.561799 2.97168 -3.883 0.371653 3.00136 -3.85555 -0.46967 2.98761 -3.86801 0.00783695 3.02426 12.0226 23.0818 -3.17766 15.8784 40.2003 -5.71999 -0.0 0.0 -0.0 2.1864 6.69599 4.72368 7.41899 1.59421 46.5337 5.23338 -68.8804 3.59009 -45.9679 -3.60702 4.45558 -0.61058 17.0251 3.19398 -0.0 0.0 -0.0 14.4294 24.8518 -29.1514 -42.0312 40.7076 -39.2445 0.673241 18.4438 -0.109307 2.50343 -0.0814535 0.309351 3.13854 -30.0275 -29.8954 0.0 0.0 0.0 -15.7391 24.5792 9.26002 0.735224 -0.0309728 -0.108572 11.2133 -1.50599 -1.60823 -14.4545 0.0 0.0 -0.0 0.0 -0.0 22.0539 29.1835 -10.7998 -16.1419 -0.321626 -2.44808 -15.5371 5.36344 -2.40231 -4.88608 0.0 0.0 0.0 0.0 0.0 
